<?xml version="1.0" ?>

<!-- License: CC Attribution. Made by Julian Schnaars: https://www.behance.net/julianschnaars -->
<svg width="800px" height="800px" viewBox="0 0 300 300" id="Layer_1" version="1.1" xml:space="preserve" xmlns="http://www.w3.org/2000/svg" xmlns:xlink="http://www.w3.org/1999/xlink">

<style type="text/css">
	.st0{fill:none;stroke:#f5f1ea;stroke-width:20;stroke-linecap:round;stroke-linejoin:round;}
	.st1{fill:#f5f1ea;}
	.st2{fill:#c2410c;}
	.st3{fill:#0f766e;}
</style>

<title/>

<g>

<g id="Layer_1-2">

<rect class="st0" height="280" width="80" x="50" y="10"/>

<path class="st1" d="M90,220L90,220c11,0,20,9,20,20l0,0c0,11-9,20-20,20l0,0c-11,0-20-9-20-20l0,0C70,229,79,220,90,220z"/>

<rect class="st2" height="130" width="20" x="80" y="60"/>

<rect class="st0" height="280" width="80" x="170" y="10"/>

<path class="st1" d="M210,220L210,220c11,0,20,9,20,20l0,0c0,11-9,20-20,20l0,0c-11,0-20-9-20-20l0,0C190,229,199,220,210,220z"/>

<rect class="st3" height="130" width="20" x="200" y="60"/>

</g>

</g>

</svg>