<?xml version="1.0" encoding="UTF-8"?>
<svg version="1.1" xmlns="http://www.w3.org/2000/svg" width="512" height="512">
<path d="M0 0 C52.96113213 -0.32065994 105.92216591 -0.56724425 158.88407838 -0.71491461 C165.14106361 -0.73242386 171.39804692 -0.75054443 177.6550293 -0.76904297 C178.90064699 -0.77271531 180.14626469 -0.77638766 181.42962838 -0.78017129 C201.58107102 -0.84103886 221.73195277 -0.95139406 241.88306301 -1.08013915 C262.57024711 -1.21120384 283.25713809 -1.28885294 303.94472033 -1.31723893 C316.70360959 -1.33641967 329.46091333 -1.39692721 342.21931434 -1.51083054 C350.97620091 -1.58501239 359.73227158 -1.60716202 368.48944931 -1.58901928 C373.5375809 -1.58007816 378.58294869 -1.59347447 383.63058472 -1.66887665 C418.62656162 -2.16605551 418.62656162 -2.16605551 428.55787659 6.73605347 C430.28788403 8.51157527 431.89411157 10.32302478 433.46029484 12.24388671 C436.06668035 15.21660405 439.21452846 17.46382179 442.375 19.8125 C443.50763508 20.69873016 444.63819947 21.5876206 445.765625 22.48046875 C447.88133279 24.13946237 450.01493309 25.75620014 452.171875 27.36328125 C453.14640625 28.10964844 454.1209375 28.85601563 455.125 29.625 C456.39730469 30.57246094 456.39730469 30.57246094 457.6953125 31.5390625 C462.99663717 37.19979902 465.03800242 45.64696057 467.453125 52.890625 C467.75820984 53.79826599 468.06329468 54.70590698 468.37762451 55.64105225 C469.01511858 57.54280926 469.6502849 59.44534804 470.28320312 61.34863281 C471.2529583 64.2588779 472.23549108 67.1646061 473.21875 70.0703125 C473.83932098 71.92682301 474.45913936 73.78358531 475.078125 75.640625 C475.37180969 76.50528381 475.66549438 77.36994263 475.96807861 78.26080322 C478.6320687 86.34548635 478.6320687 86.34548635 478 90 C476.67407227 92.30493164 476.67407227 92.30493164 474.81640625 94.66015625 C473.79450195 95.9759668 473.79450195 95.9759668 472.75195312 97.31835938 C472.02943359 98.22392578 471.30691406 99.12949219 470.5625 100.0625 C468.48403577 102.71755787 466.40738982 105.37314816 464.35081482 108.04521179 C462 111 462 111 459.65553284 113.54878235 C452.07003647 122.29533469 451.54788827 129.49822809 451.5234375 140.6953125 C451.49693571 142.41277178 451.46904167 144.13021007 451.43984985 145.84762573 C451.39067551 149.44714275 451.37774304 153.04471423 451.38720703 156.64453125 C451.39235353 160.26260077 451.33817358 163.87107902 451.22314453 167.48730469 C450.54692412 189.01109244 452.051993 204.98628895 462.87931824 223.82772446 C471.52319525 238.98174425 471.36874115 251.01948557 468.875 268.25 C468.54632538 270.98213045 468.24994095 273.71746047 467.95458984 276.45336914 C467.34516935 281.99396468 466.67800263 287.52432985 465.97070312 293.05322266 C465.03988489 300.39003652 464.33993192 307.73515716 463.734375 315.10546875 C463.64200058 316.2217868 463.54962616 317.33810486 463.45445251 318.48825073 C463.2707785 320.70899514 463.08721913 322.92974903 462.90377808 325.1505127 C461.17913896 345.48520669 458.82336149 365.74944173 456.3125 386 C456.16202209 387.22379364 456.01154419 388.44758728 455.85650635 389.70846558 C455.42914346 393.16086153 454.9921036 396.61186361 454.55078125 400.0625 C454.42386398 401.08485245 454.29694672 402.1072049 454.16618347 403.16053772 C453.29894657 409.79255021 452.25158541 415.57875016 448.3828125 421.1796875 C447.60550781 422.31277344 447.60550781 422.31277344 446.8125 423.46875 C446.255625 424.2628125 445.69875 425.056875 445.125 425.875 C444.54492188 426.71289062 443.96484375 427.55078125 443.3671875 428.4140625 C439.2256984 434.35619904 434.92793762 440.16527391 430.53295898 445.92138672 C425.99275009 451.90569764 421.77516873 458.09420715 417.62695312 464.35546875 C416.12220213 466.60003955 414.58047225 468.80814041 413 471 C412.50314697 471.6894873 412.00629395 472.37897461 411.49438477 473.08935547 C406.59142336 479.28877661 400.48452538 482.50523879 393.5625 486.125 C391.76158882 487.09072979 389.96409 488.06260881 388.16677856 489.03501892 C386.9410583 489.69795089 385.71438766 490.35912863 384.48678589 491.01856995 C378.15439846 494.42793405 371.94868505 498.0406449 365.75 501.6875 C364.76974854 502.26322754 363.78949707 502.83895508 362.77954102 503.43212891 C361.0419631 504.4529123 359.30509495 505.47490608 357.56933594 506.4987793 C356.72145508 506.99418213 355.87357422 507.48958496 355 508 C354.05650035 508.6760453 353.1130007 509.35209061 352.14091015 510.04862213 C346.83477395 513.04759091 341.12522916 512.65970946 335.17610168 512.7232666 C333.88061722 512.75208467 332.58513276 512.78090274 331.25039119 512.81059408 C327.66457155 512.88921876 324.07875423 512.94294579 320.49242365 512.99198818 C317.41296382 513.03721383 314.33384865 513.09690029 311.25463823 513.15648061 C281.95371681 513.72133584 252.64490063 513.9825426 223.3395586 514.19376373 C219.51844225 514.22179385 215.69732986 514.2503023 211.8762207 514.27929688 C210.92664443 514.28647804 209.97706816 514.29365921 208.99871685 514.30105799 C193.68206229 514.42083061 178.37096956 514.6794354 163.05721072 514.99404269 C147.28196165 515.31540413 131.50956301 515.49680598 115.73110503 515.54986715 C106.89147529 515.58323843 98.06174759 515.67666384 89.22541237 515.92854309 C29.10831252 517.58836559 29.10831252 517.58836559 11.31151038 501.64607811 C5.18820689 495.67560318 -0.02339988 489.05534207 -5.02067417 482.13175249 C-10.35287383 474.94346924 -15.96127166 472.03826188 -24.12890625 468.640625 C-28.94344291 465.89280912 -32.86331401 463.47242138 -34.67012787 457.95285034 C-37.71251429 444.61642193 -36.64283444 430.50724734 -36.05596924 416.95861816 C-35.89938377 412.71766095 -35.85634556 408.47913721 -35.81757355 404.23571682 C-35.62996866 384.8868138 -35.00318763 366.51008425 -29.47090149 347.86958313 C-25.79458842 334.988355 -25.93904624 322.04340259 -26.08740234 308.75756836 C-26.12658866 305.21610543 -26.10507855 301.678287 -26.06398422 298.13695818 C-25.92899249 283.64502725 -26.68249458 269.95926705 -29.98347604 255.82195497 C-34.17334096 237.54266986 -35.23535865 219.72574921 -35.36838889 201.02833605 C-35.38712547 198.5477154 -35.41397722 196.06729444 -35.44291115 193.58677292 C-35.53246047 185.72245645 -35.59600682 177.8586243 -35.61891431 169.9938246 C-35.64231725 161.98586261 -35.72154681 153.98327824 -35.89331055 145.97705078 C-37.44190472 72.16215211 -37.44190472 72.16215211 -18.4466964 40.08171153 C-13.82445172 32.14335662 -10.26885867 23.78785455 -6.64482117 15.3644104 C-5.99672855 13.8688772 -5.34815121 12.37355396 -4.69907904 10.87844563 C-3.12712893 7.2546898 -1.56173648 3.62816861 0 0 Z " fill="#5eead4" transform="translate(34,0)"/>
<path d="M0 0 C7.91983765 -0.3276252 15.83674821 -0.57469349 23.76173306 -0.72537041 C27.44396786 -0.7977781 31.12149926 -0.8955258 34.80102539 -1.05615234 C63.05929075 -2.25742044 63.05929075 -2.25742044 73.07421875 6.69140625 C74.89798137 8.48672936 76.63464585 10.32065193 78.33560181 12.2323761 C81.05985475 15.12558677 84.2037602 17.43518677 87.375 19.8125 C88.50723914 20.69923596 89.63774056 21.58820039 90.765625 22.48046875 C92.88133279 24.13946237 95.01493309 25.75620014 97.171875 27.36328125 C98.14640625 28.10964844 99.1209375 28.85601563 100.125 29.625 C101.39730469 30.57246094 101.39730469 30.57246094 102.6953125 31.5390625 C107.99663717 37.19979902 110.03800242 45.64696057 112.453125 52.890625 C112.75820984 53.79826599 113.06329468 54.70590698 113.37762451 55.64105225 C114.01511858 57.54280926 114.6502849 59.44534804 115.28320312 61.34863281 C116.2529583 64.2588779 117.23549108 67.1646061 118.21875 70.0703125 C118.83932098 71.92682301 119.45913936 73.78358531 120.078125 75.640625 C120.37180969 76.50528381 120.66549438 77.36994263 120.96807861 78.26080322 C123.6320687 86.34548635 123.6320687 86.34548635 123 90 C121.67407227 92.30493164 121.67407227 92.30493164 119.81640625 94.66015625 C118.79450195 95.9759668 118.79450195 95.9759668 117.75195312 97.31835938 C117.02943359 98.22392578 116.30691406 99.12949219 115.5625 100.0625 C113.48403577 102.71755787 111.40738982 105.37314816 109.35081482 108.04521179 C107 111 107 111 104.65553284 113.54878235 C97.07003647 122.29533469 96.54788827 129.49822809 96.5234375 140.6953125 C96.49693571 142.41277178 96.46904167 144.13021007 96.43984985 145.84762573 C96.39067551 149.44714275 96.37774304 153.04471423 96.38720703 156.64453125 C96.39235353 160.26260077 96.33817358 163.87107902 96.22314453 167.48730469 C95.54692412 189.01109244 97.051993 204.98628895 107.87931824 223.82772446 C116.52319525 238.98174425 116.36874115 251.01948557 113.875 268.25 C113.54632538 270.98213045 113.24994095 273.71746047 112.95458984 276.45336914 C112.34516935 281.99396468 111.67800263 287.52432985 110.97070312 293.05322266 C110.03988489 300.39003652 109.33993192 307.73515716 108.734375 315.10546875 C108.64200058 316.2217868 108.54962616 317.33810486 108.45445251 318.48825073 C108.2707785 320.70899514 108.08721913 322.92974903 107.90377808 325.1505127 C106.17913896 345.48520669 103.82336149 365.74944173 101.3125 386 C101.16202209 387.22379364 101.01154419 388.44758728 100.85650635 389.70846558 C100.42914346 393.16086153 99.9921036 396.61186361 99.55078125 400.0625 C99.36040535 401.59602867 99.36040535 401.59602867 99.16618347 403.16053772 C98.29894657 409.79255021 97.25158541 415.57875016 93.3828125 421.1796875 C92.60550781 422.31277344 92.60550781 422.31277344 91.8125 423.46875 C91.255625 424.2628125 90.69875 425.056875 90.125 425.875 C89.54492188 426.71289062 88.96484375 427.55078125 88.3671875 428.4140625 C84.2256984 434.35619904 79.92793762 440.16527391 75.53295898 445.92138672 C70.99275009 451.90569764 66.77516873 458.09420715 62.62695312 464.35546875 C61.12220213 466.60003955 59.58047225 468.80814041 58 471 C57.50314697 471.6894873 57.00629395 472.37897461 56.49438477 473.08935547 C51.59142336 479.28877661 45.48452538 482.50523879 38.5625 486.125 C36.76158882 487.09072979 34.96409 488.06260881 33.16677856 489.03501892 C31.9410583 489.69795089 30.71438766 490.35912863 29.48678589 491.01856995 C23.15439846 494.42793405 16.94868505 498.0406449 10.75 501.6875 C9.76974854 502.26322754 8.78949707 502.83895508 7.77954102 503.43212891 C6.0419631 504.4529123 4.30509495 505.47490608 2.56933594 506.4987793 C1.72145508 506.99418213 0.87357422 507.48958496 0 508 C-0.99555908 508.7122876 -1.99111816 509.4245752 -3.0168457 510.15844727 C-8.20967987 513.09775853 -13.91516532 512.4932321 -19.71484375 512.390625 C-20.92572159 512.38496521 -22.13659943 512.37930542 -23.38417053 512.37347412 C-27.23568958 512.35115882 -31.08626409 512.30096835 -34.9375 512.25 C-37.55532507 512.22992887 -40.17316478 512.21167918 -42.79101562 512.1953125 C-49.1943304 512.15130969 -55.5970977 512.08444461 -62 512 C-58.93078143 509.65848046 -55.82899287 507.67676374 -52.46875 505.76953125 C-51.36144531 505.13958252 -50.25414062 504.50963379 -49.11328125 503.8605957 C-48.52498535 503.5274234 -47.93668945 503.1942511 -47.33056641 502.85098267 C-45.47149789 501.79633072 -43.61623732 500.73523719 -41.76171875 499.67260742 C-35.94795383 496.34662346 -30.12302433 493.04967228 -24.23088074 489.86416626 C-11.05162817 482.73783243 0.90361868 476.2232624 10 464 C11.55709723 462.09972673 13.11942541 460.2037251 14.6875 458.3125 C15.40292969 457.42175781 16.11835938 456.53101563 16.85546875 455.61328125 C18.99874956 453.00152377 21.2238033 450.49634698 23.5 448 C26.61458668 444.58260628 29.5918662 441.0947765 32.5 437.5 C36.14702104 432.99223099 39.94136692 428.66024979 43.859375 424.38671875 C44.56578125 423.59910156 45.2721875 422.81148438 46 422 C46.82532227 421.20352051 47.65064453 420.40704102 48.50097656 419.58642578 C52.18440348 415.12256803 52.42370764 409.80510988 53.125 404.23046875 C53.36464478 402.50778023 53.36464478 402.50778023 53.60913086 400.75028992 C54.09815947 397.16965529 54.55423983 393.58625905 55 390 C55.13647949 388.9209137 55.27295898 387.84182739 55.41357422 386.7300415 C56.34753472 379.26513993 57.18694499 371.79141492 58 364.3125 C58.12662018 363.1636734 58.25324036 362.0148468 58.38369751 360.83120728 C60.72349065 339.55791982 62.6277007 318.26075231 64.34733582 296.92953491 C64.82186681 291.07459518 65.33118577 285.22390335 65.875 279.375 C65.94463455 278.62495193 66.0142691 277.87490387 66.08601379 277.10212708 C66.40242789 273.70782211 66.72339607 270.31404051 67.04956055 266.9206543 C67.26668524 264.60460514 67.46755767 262.28694548 67.64830017 259.96777344 C67.88972744 257.24406237 68.18914866 254.59408203 68.5710144 251.89326477 C69.96234909 240.5387348 67.89496718 234.04772923 61.91774178 224.48808289 C50.70490051 206.14145134 49.40578765 188.89799214 49.94848633 167.81689453 C50.06363398 163.33974361 50.0356348 158.87601047 49.97113132 154.39829826 C49.58506223 121.69445592 49.58506223 121.69445592 60.55213928 110.10095215 C61.74753043 108.94889219 62.96257231 107.81680332 64.19822693 106.70803833 C67.32440531 103.74449504 69.8349153 100.29467557 72.4375 96.875 C72.91368271 96.29810425 73.38986542 95.7212085 73.88047791 95.12683105 C76.25092343 92.0396256 77.01861072 90.36394575 76.81811523 86.44311523 C76.01891144 81.28386941 74.38460647 76.41766706 72.7265625 71.48046875 C72.40215179 70.50008133 72.07774109 69.51969391 71.74349976 68.50959778 C71.05962376 66.4502225 70.37194554 64.39210635 69.68066406 62.33520508 C68.62375822 59.18379736 67.58466247 56.02688856 66.546875 52.86914062 C65.87866771 50.86422856 65.20943258 48.85965869 64.5390625 46.85546875 C64.22957672 45.91172897 63.92009094 44.9679892 63.60122681 43.99565125 C63.30436981 43.12076553 63.00751282 42.24587982 62.70166016 41.34448242 C62.31646713 40.19153938 62.31646713 40.19153938 61.92349243 39.01530457 C60.05683206 34.94175827 56.90628296 33.23271297 53.08203125 31.13671875 C51.58833008 30.31095337 51.58833008 30.31095337 50.06445312 29.46850586 C48.99130859 28.88077393 47.91816406 28.29304199 46.8125 27.6875 C44.54715798 26.43413183 42.28286226 25.17887101 40.01953125 23.921875 C39.44042999 23.60041 38.86132874 23.27894501 38.26467896 22.94773865 C31.13211612 18.97742895 24.09464707 14.84481678 17.05786133 10.70776367 C11.4137079 7.39272529 5.73965235 4.14706556 0 1 C0 0.67 0 0.34 0 0 Z " fill="#2dd4bf" transform="translate(389,0)"/>
<path d="M0 0 C7.91556292 4.48702312 14.17000422 11.9452748 20.5 18.375 C21.61932104 19.50437288 22.73910921 20.63328299 23.859375 21.76171875 C26.57833025 24.50250825 29.29089201 27.24947808 32 30 C36.27238166 28.35333941 39.09544742 25.13947497 42.2265625 21.93359375 C42.81545258 21.33950211 43.40434265 20.74541046 44.01107788 20.13331604 C45.88720808 18.23940726 47.75650105 16.33893569 49.625 14.4375 C51.50150464 12.53338558 53.37944576 10.63074561 55.26034546 8.73097229 C56.42947724 7.54957451 57.59592558 6.36551399 58.75942993 5.17857361 C63.61387774 0.26402329 63.61387774 0.26402329 67.625 -0.5 C74.73325691 0.5530751 79.83183951 7.7836248 84.671875 12.75 C85.16605927 13.25656128 85.66024353 13.76312256 86.16940308 14.28503418 C88.22370524 16.39444399 90.27660668 18.50469169 92.31103516 20.63330078 C93.81589191 22.20442994 95.33592082 23.75942679 96.859375 25.3125 C97.75108398 26.23675781 98.64279297 27.16101563 99.56152344 28.11328125 C101.75044974 30.25797688 101.75044974 30.25797688 103.97032166 29.78466797 C107.46994873 28.43172194 109.74238662 25.4917811 112.26953125 22.8125 C113.50022757 21.54385989 114.73136113 20.27564382 115.96289062 19.0078125 C117.89095183 17.00535902 119.81392196 14.99850358 121.72875977 12.98339844 C123.58320622 11.03807814 125.45608597 9.11206457 127.33203125 7.1875 C127.89581985 6.58333252 128.45960846 5.97916504 129.04048157 5.35668945 C131.85538614 2.48963639 133.64093095 1.11524268 137.54174805 -0.13671875 C144.43032185 0.13561456 148.70308403 5.42003978 153.2734375 10.078125 C154.12634872 10.93528107 154.12634872 10.93528107 154.99649048 11.80975342 C156.79411823 13.61848891 158.58462769 15.43408537 160.375 17.25 C161.59979492 18.48483688 162.82505093 19.71921661 164.05078125 20.953125 C167.03921134 23.96349051 170.02128196 26.98002548 173 30 C177.16282718 28.37060584 179.91439442 25.32217907 182.97265625 22.1875 C183.53697861 21.61797607 184.10130096 21.04845215 184.682724 20.46166992 C186.48081144 18.64581011 188.27205884 16.82339702 190.0625 15 C191.85736513 13.17748457 193.65367994 11.3564599 195.45298767 9.53833008 C196.57098518 8.40811145 197.68629856 7.27522989 198.79859924 6.1394043 C204.56305089 0.30075679 204.56305089 0.30075679 208.6875 -0.5625 C215.74681991 0.63625244 220.84036223 7.79146378 225.671875 12.75 C226.16605423 13.25656631 226.66023346 13.76313263 227.16938782 14.28504944 C229.223711 16.39443888 231.27660665 18.50469166 233.31103516 20.63330078 C234.81589191 22.20442994 236.33592082 23.75942679 237.859375 25.3125 C239.19693848 26.69888672 239.19693848 26.69888672 240.56152344 28.11328125 C242.74981515 30.25761329 242.74981515 30.25761329 244.96536255 29.78466797 C247.20135475 28.92234655 248.32285305 28.03534732 249.99267578 26.33203125 C250.54649933 25.77475342 251.10032288 25.21747559 251.67092896 24.64331055 C252.25647552 24.03914307 252.84202209 23.43497559 253.4453125 22.8125 C254.36194168 21.88594604 254.36194168 21.88594604 255.29708862 20.94067383 C257.24694821 18.96741655 259.1863637 16.98427953 261.125 15 C263.07247333 13.01748463 265.02205987 11.0371134 266.97433472 9.05932617 C268.18840516 7.82825565 269.39937853 6.59412176 270.60696411 5.35668945 C275.60966277 0.26482614 275.60966277 0.26482614 279.625 -0.5 C283.32031046 0.0474534 284.05660172 0.6307994 286.72680664 3.05541992 C287.42975861 3.69297211 288.13271057 4.33052429 288.85696411 4.98739624 C292.21252065 8.13872271 295.49617537 11.3533274 298.74609375 14.61328125 C299.44267593 15.30890671 300.13925812 16.00453217 300.85694885 16.72123718 C302.31267999 18.17629346 303.7671718 19.63259063 305.22045898 21.09008789 C307.45247268 23.32750895 309.68984135 25.55947677 311.92773438 27.79101562 C313.34667534 29.21061654 314.76530654 30.63052717 316.18359375 32.05078125 C316.85329697 32.71846024 317.52300018 33.38613922 318.21299744 34.0740509 C318.82776443 34.69197006 319.44253143 35.30988922 320.07592773 35.9465332 C320.61805405 36.48945511 321.16018036 37.03237701 321.71873474 37.5917511 C323.63612722 39.69917252 323.99403473 40.94631258 324.3125 43.8125 C323.92835642 47.7307645 322.70743683 49.21293267 320 52 C316.98221063 53.50889469 315.37677363 53.50026276 312 53 C304.58236536 47.80765575 298.36808618 40.48307585 292 34.0625 C290.92862113 32.98609346 289.85700818 31.90991986 288.78515625 30.83398438 C286.18740362 28.22533255 283.59282038 25.61355529 281 23 C276.74807212 24.62327768 274.06052921 27.82657783 271.01953125 31.06640625 C269.84402371 32.28669878 268.66756079 33.50607158 267.49023438 34.72460938 C265.6485205 36.64039404 263.81369253 38.56122962 261.99487305 40.4987793 C260.22985522 42.3733483 258.43995831 44.22100307 256.64453125 46.06640625 C255.84714287 46.93514122 255.84714287 46.93514122 255.03364563 47.82142639 C251.36539663 51.53881766 248.33334705 52.96610741 243.07347107 53.21418762 C239.82749563 52.87888139 238.37109885 51.56573843 236.1328125 49.25390625 C235.30040039 48.42262207 234.46798828 47.59133789 233.61035156 46.73486328 C232.74893555 45.8323584 231.88751953 44.92985352 231 44 C229.14488012 42.17410236 227.28807969 40.34991074 225.4296875 38.52734375 C223.57552362 36.66665113 221.72397211 34.80335177 219.875 32.9375 C218.90909319 31.96655904 217.94294838 30.99585477 216.9765625 30.02539062 C214.64870613 27.68589498 212.32323895 25.34407948 210 23 C205.74536687 24.62650812 203.03826834 27.83157218 199.984375 31.06640625 C198.80414609 32.28654354 197.62313159 33.50592134 196.44140625 34.72460938 C194.59234363 36.64165585 192.74922527 38.56331947 190.91943359 40.4987793 C189.14458982 42.37084533 187.34800815 44.21966626 185.546875 46.06640625 C184.74174469 46.93514122 184.74174469 46.93514122 183.92034912 47.82142639 C181.06470333 50.71491355 178.89273535 52.35357174 174.82519531 53.0390625 C171 53 171 53 168.890625 51.98608398 C168.07851563 51.15572632 168.07851563 51.15572632 167.25 50.30859375 C166.59128906 49.66003418 165.93257812 49.01147461 165.25390625 48.34326172 C164.51011719 47.56998535 163.76632813 46.79670898 163 46 C161.57346232 44.59772146 160.14684967 43.19551807 158.71875 41.79483032 C156.12524077 39.23786468 153.56468029 36.64831996 151 34.0625 C149.92862113 32.98609346 148.85700818 31.90991986 147.78515625 30.83398438 C145.18740362 28.22533255 142.59282038 25.61355529 140 23 C135.8401122 24.62604727 133.10786592 27.67275386 130.0625 30.8125 C129.50054932 31.38202393 128.93859863 31.95154785 128.35961914 32.53833008 C126.56818268 34.35414659 124.7833428 36.17623605 123 38 C120.6516182 40.4016101 118.29669213 42.79651374 115.9375 45.1875 C115.4019751 45.73962158 114.8664502 46.29174316 114.31469727 46.8605957 C110.78592839 50.43531647 108.16112372 52.55795197 103.25 53.5625 C94.24257027 52.00352178 86.33817304 40.45291615 80 34.0625 C78.92862113 32.98609346 77.85700818 31.90991986 76.78515625 30.83398438 C74.18740362 28.22533255 71.59282038 25.61355529 69 23 C64.74807212 24.62327768 62.06052921 27.82657783 59.01953125 31.06640625 C57.84402371 32.28669878 56.66756079 33.50607158 55.49023438 34.72460938 C53.6485205 36.64039404 51.81369253 38.56122962 49.99487305 40.4987793 C48.22985522 42.3733483 46.43995831 44.22100307 44.64453125 46.06640625 C44.112939 46.6455629 43.58134674 47.22471954 43.03364563 47.82142639 C39.47181922 51.43096936 36.36043638 53.14656176 31.22383118 53.38438416 C26.89519522 52.63618929 24.53277001 49.65285526 21.69921875 46.5 C21.05555862 45.83033203 20.4118985 45.16066406 19.74873352 44.47070312 C17.70305514 42.33620654 15.69399595 40.17131783 13.6875 38 C11.65900338 35.83345325 9.62362479 33.67463765 7.57270813 31.52929688 C6.29975985 30.19499722 5.04041692 28.84755989 3.79631042 27.48632812 C3.22503922 26.88240234 2.65376801 26.27847656 2.06518555 25.65625 C1.56826706 25.11806641 1.07134857 24.57988281 0.55937195 24.02539062 C-0.97014253 22.78994488 -0.97014253 22.78994488 -3.00453186 23.16723633 C-5.17775746 24.07418307 -6.34999797 24.99234207 -7.99267578 26.66796875 C-8.54649933 27.22524658 -9.10032288 27.78252441 -9.67092896 28.35668945 C-10.25647552 28.96085693 -10.84202209 29.56502441 -11.4453125 30.1875 C-12.05639862 30.80520264 -12.66748474 31.42290527 -13.29708862 32.05932617 C-15.24694821 34.03258345 -17.1863637 36.01572047 -19.125 38 C-21.07247333 39.98251537 -23.02205987 41.9628866 -24.97433472 43.94067383 C-26.18840516 45.17174435 -27.39937853 46.40587824 -28.60696411 47.64331055 C-33.6994861 52.82659815 -33.6994861 52.82659815 -37.8125 53.375 C-41 53 -41 53 -43.875 51 C-46.06000736 47.91528372 -46.85984618 45.89979778 -46.61566162 42.09341431 C-45.85405876 39.50376071 -44.7207826 38.17766967 -42.89941406 36.19287109 C-42.2642688 35.49740173 -41.62912354 34.80193237 -40.97473145 34.08538818 C-37.97865361 30.92142108 -34.94565651 27.80261374 -31.859375 24.7265625 C-30.88608246 23.75183487 -30.88608246 23.75183487 -29.89312744 22.75741577 C-28.53642399 21.40003791 -27.17848145 20.04389746 -25.81933594 18.68896484 C-23.73775892 16.61279069 -21.66163395 14.53127037 -19.5859375 12.44921875 C-18.26073756 11.12467887 -16.93522785 9.80044882 -15.609375 8.4765625 C-14.99060486 7.85576813 -14.37183472 7.23497375 -13.73431396 6.59536743 C-13.15651184 6.02071747 -12.57870972 5.4460675 -11.98339844 4.85400391 C-11.47822693 4.34962799 -10.97305542 3.84525208 -10.45257568 3.32559204 C-6.89938121 0.08301655 -4.71427366 -0.71158848 0 0 Z " fill="#1a1816" transform="translate(82,150)"/>
<path d="M0 0 C2.72604111 1.92372894 4.95006792 4.2494643 7.24609375 6.66015625 C7.90207047 7.32462265 8.55804718 7.98908905 9.23390198 8.6736908 C11.31632826 10.78957956 13.37687048 12.92539945 15.4375 15.0625 C16.84951526 16.50462358 18.26291267 17.94539525 19.67773438 19.38476562 C23.13469638 22.90771747 26.57218631 26.44869002 30 30 C34.39085576 26.32530697 38.56169279 22.54562176 42.57421875 18.453125 C43.58125055 17.43346568 44.5884158 16.41393814 45.59570312 15.39453125 C47.15110318 13.81421519 48.70482195 12.23230869 50.25610352 10.64794922 C51.77440845 9.09943518 53.29888377 7.55721021 54.82421875 6.015625 C56.17132935 4.64325684 56.17132935 4.64325684 57.5456543 3.24316406 C60.53259839 0.51322849 62.47019594 -0.77576014 66.46337891 -1.36108398 C69.85777997 -0.87789638 71.11818217 0.42001125 73.5859375 2.77734375 C74.45444336 3.59960449 75.32294922 4.42186523 76.21777344 5.26904297 C77.59497559 6.6208667 77.59497559 6.6208667 79 8 C79.47038696 8.45965149 79.94077393 8.91930298 80.42541504 9.3928833 C83.85673685 12.75176964 87.24466144 16.15243061 90.625 19.5625 C91.63908446 20.58161754 92.65340625 21.60049899 93.66796875 22.61914062 C96.11470835 25.07672412 98.55826544 27.53744246 101 30 C105.52416683 26.33054082 109.64407204 22.38820946 113.6875 18.19921875 C114.19724365 17.67449982 114.7069873 17.14978088 115.23217773 16.60916138 C117.36429487 14.41410855 119.49544568 12.21888087 121.60253906 9.99975586 C123.15866787 8.3646757 124.73345804 6.74964175 126.3125 5.13671875 C126.77938232 4.63573166 127.24626465 4.13474457 127.72729492 3.61857605 C131.25583976 0.06163411 134.01648673 -0.93543364 139 -1 C146.87330638 2.07876354 153.60114957 11.38321287 159.5 17.375 C160.61932104 18.50437288 161.73910921 19.63328299 162.859375 20.76171875 C165.57833025 23.50250825 168.29089201 26.24947808 171 29 C175.04954558 27.39328554 177.7123525 24.50924178 180.68359375 21.44140625 C181.22097672 20.89645004 181.75835968 20.35149384 182.31202698 19.7900238 C184.60279175 17.46667602 186.88154826 15.13167932 189.16137695 12.79760742 C190.8312947 11.09140269 192.50726915 9.39131301 194.18359375 7.69140625 C194.69208359 7.16631973 195.20057343 6.64123322 195.72447205 6.10023499 C202.65836924 -0.92768018 202.65836924 -0.92768018 208.35961914 -1.10375977 C213.2785504 0.38765518 215.75680148 2.99660479 219.24609375 6.66015625 C220.23005882 7.65685585 220.23005882 7.65685585 221.23390198 8.6736908 C223.31632826 10.78957956 225.37687048 12.92539945 227.4375 15.0625 C228.84951526 16.50462358 230.26291267 17.94539525 231.67773438 19.38476562 C235.13469638 22.90771747 238.57218631 26.44869002 242 30 C246.39362417 26.31958344 250.57870798 22.53530214 254.609375 18.453125 C255.34960907 17.707211 255.34960907 17.707211 256.10479736 16.94622803 C257.65570167 15.38327404 259.20325913 13.81707362 260.75 12.25 C262.80438742 10.16897341 264.86210547 8.09132299 266.921875 6.015625 C267.82518555 5.10071289 268.72849609 4.18580078 269.65917969 3.24316406 C274.068 -0.98172549 274.068 -0.98172549 278.1875 -1.0625 C281.91156961 -0.02464453 283.02633821 0.62245195 285.76782227 3.10424805 C286.46674591 3.73664398 287.16566956 4.36903992 287.88577271 5.02059937 C291.16041381 8.08641291 294.36058302 11.21765428 297.52734375 14.39453125 C298.53892296 15.40467537 298.53892296 15.40467537 299.57093811 16.43522644 C300.97959068 17.8432044 302.38700499 19.25242224 303.79321289 20.6628418 C305.95279773 22.82783604 308.11773882 24.98737256 310.28320312 27.14648438 C311.6565712 28.52051237 313.02962951 29.89485006 314.40234375 31.26953125 C315.05017319 31.91533646 315.69800262 32.56114166 316.36546326 33.22651672 C317.25758263 34.12336433 317.25758263 34.12336433 318.16772461 35.03833008 C318.69208603 35.56348709 319.21644745 36.0886441 319.75669861 36.62971497 C321.66561071 38.73359235 321.99525181 39.94658282 322.25 42.8125 C321.96929042 46.39154719 321.12271416 48.14250017 319 51 C315.71151273 52.64424364 312.53393673 52.71435296 309 52 C306.1330585 50.21035842 303.95828181 47.8941065 301.65625 45.4375 C301.00168823 44.77161865 300.34712646 44.1057373 299.67272949 43.41967773 C297.59555507 41.29787967 295.54798316 39.14994945 293.5 37 C292.09301346 35.55286934 290.68417752 34.10753431 289.2734375 32.6640625 C285.82718704 29.12981826 282.40721458 25.57187551 279 22 C274.8015418 23.92042741 271.96364836 26.80001814 268.7734375 30.06640625 C267.89010239 30.95754372 267.89010239 30.95754372 266.98892212 31.86668396 C265.11279192 33.76059274 263.24349895 35.66106431 261.375 37.5625 C259.49849536 39.46661442 257.62055424 41.36925439 255.73965454 43.26902771 C254.57052276 44.45042549 253.40407442 45.63448601 252.24057007 46.82142639 C247.33656258 51.78614999 247.33656258 51.78614999 242.875 52.5 C233.44403889 51.28310179 225.55638726 39.67292902 219 33.0625 C217.92862113 31.98609346 216.85700818 30.90991986 215.78515625 29.83398438 C213.18740362 27.22533255 210.59282038 24.61355529 208 22 C203.72761834 23.64666059 200.90455258 26.86052503 197.7734375 30.06640625 C196.89010239 30.95754372 196.89010239 30.95754372 195.98892212 31.86668396 C194.11279192 33.76059274 192.24349895 35.66106431 190.375 37.5625 C188.49849536 39.46661442 186.62055424 41.36925439 184.73965454 43.26902771 C183.57052276 44.45042549 182.40407442 45.63448601 181.24057007 46.82142639 C176.31953901 51.80338432 176.31953901 51.80338432 171.82788086 52.47265625 C166.44892906 51.80847801 164.37412428 49.26864875 160.75390625 45.4375 C160.09792953 44.77161865 159.44195282 44.1057373 158.76609802 43.41967773 C156.6811901 41.29568372 154.62197174 39.14863781 152.5625 37 C151.15071718 35.5530966 149.73732241 34.10776416 148.32226562 32.6640625 C144.86256315 29.12731084 141.42569684 25.56968687 138 22 C133.8015418 23.92042741 130.96364836 26.80001814 127.7734375 30.06640625 C126.89010239 30.95754372 126.89010239 30.95754372 125.98892212 31.86668396 C124.11279192 33.76059274 122.24349895 35.66106431 120.375 37.5625 C118.49849536 39.46661442 116.62055424 41.36925439 114.73965454 43.26902771 C113.57052276 44.45042549 112.40407442 45.63448601 111.24057007 46.82142639 C106.33656258 51.78614999 106.33656258 51.78614999 101.875 52.5 C92.44403889 51.28310179 84.55638726 39.67292902 78 33.0625 C76.92862113 31.98609346 75.85700818 30.90991986 74.78515625 29.83398438 C72.18740362 27.22533255 69.59282038 24.61355529 67 22 C62.72761834 23.64666059 59.90455258 26.86052503 56.7734375 30.06640625 C55.89010239 30.95754372 55.89010239 30.95754372 54.98892212 31.86668396 C53.11279192 33.76059274 51.24349895 35.66106431 49.375 37.5625 C47.49849536 39.46661442 45.62055424 41.36925439 43.73965454 43.26902771 C42.57052276 44.45042549 41.40407442 45.63448601 40.24057007 46.82142639 C37.13815914 49.96224801 35.35066602 51.71861125 31 52.625 C27.05514524 52.55667111 25.26637043 50.78170471 22.4453125 48.15234375 C21.12901855 46.92741211 21.12901855 46.92741211 19.78613281 45.67773438 C15.08540115 41.15989132 10.46409292 36.56848773 5.875 31.9375 C4.90909319 30.96655904 3.94294838 29.99585477 2.9765625 29.02539062 C0.64870613 26.68589498 -1.67676105 24.34407948 -4 22 C-11.04033642 27.77366502 -17.32536402 34.27914644 -23.68334961 40.77929688 C-25.13215149 42.25831683 -26.58712904 43.73103676 -28.04296875 45.203125 C-28.89914795 46.07614258 -29.75532715 46.94916016 -30.63745117 47.84863281 C-33.7231782 50.65853532 -35.81122864 51.84824195 -39.9375 52.375 C-43.93864009 51.88506448 -45.41771029 51.1139376 -48 48 C-48.84072094 44.85437148 -48.75252811 42.16106661 -48 39 C-45.64043392 35.39997905 -42.65160069 32.57832993 -39.5390625 29.625 C-38.6781601 28.77446045 -37.81725769 27.9239209 -36.93026733 27.04760742 C-34.18227031 24.34325409 -31.40433129 21.67210103 -28.625 19 C-26.76102561 17.17260586 -24.89902185 15.34319932 -23.0390625 13.51171875 C-19.6400072 10.179295 -16.2360755 6.85246441 -12.80712891 3.55078125 C-12.11873932 2.88731689 -11.43034973 2.22385254 -10.72109985 1.5402832 C-7.09234079 -1.70724286 -4.6350168 -1.18513823 0 0 Z " fill="#1a1816" transform="translate(84,292)"/>
<path d="M0 0 C1.88519109 -0.01657153 1.88519109 -0.01657153 3.80846685 -0.03347784 C5.20058366 -0.02552077 6.59269833 -0.01718309 7.98481083 -0.00850582 C9.46566033 -0.01383066 10.94650442 -0.020896 12.42733818 -0.02955288 C16.49773861 -0.04821565 20.56777611 -0.04186286 24.63819182 -0.03139985 C29.02752188 -0.02441809 33.41677661 -0.04039798 37.80608463 -0.05339718 C46.40546146 -0.07505973 55.00470608 -0.0749045 63.60410123 -0.06677163 C70.59240724 -0.06047635 77.58067463 -0.06160434 84.56898022 -0.06804371 C85.56292512 -0.06894536 86.55687001 -0.06984702 87.58093445 -0.070776 C89.60001541 -0.07262717 91.61909635 -0.07448973 93.63817728 -0.07636356 C112.58012071 -0.09294993 131.52198969 -0.08421575 150.46392865 -0.06737798 C167.79961328 -0.0526808 185.13512461 -0.0673082 202.47078692 -0.09614814 C220.26416838 -0.12552947 238.05746982 -0.13651808 255.85087448 -0.12696594 C257.86290744 -0.12594337 259.8749404 -0.12494876 261.88697338 -0.12398243 C262.87696976 -0.12350604 263.86696613 -0.12302965 264.8869624 -0.12253882 C271.86733718 -0.12037299 278.84763634 -0.13018777 285.82799435 -0.14475346 C294.3342053 -0.1622552 302.84019527 -0.16219054 311.34639745 -0.1394018 C315.68745711 -0.12823982 320.02812711 -0.12514109 324.36917019 -0.14370251 C328.34240202 -0.1604728 332.3149033 -0.15420388 336.28808749 -0.12948572 C337.72612088 -0.12459057 339.1642128 -0.12815048 340.60219734 -0.14097316 C352.6877384 -0.24097231 352.6877384 -0.24097231 356.65355873 2.9006443 C358.79488468 5.50615788 358.79488468 5.50615788 359.37300968 7.82256413 C359.21058781 8.93438053 359.21058781 8.93438053 359.04488468 10.06865788 C358.92886906 11.18434147 358.92886906 11.18434147 358.81050968 12.32256413 C357.25055366 15.67646957 355.15739751 17.19419482 351.79488468 18.50615788 C347.05635083 19.1100846 342.32238282 19.04204801 337.55390263 19.00736332 C336.07972857 19.0112571 334.60555827 19.01689817 333.13139683 19.02413422 C329.08411041 19.03889576 325.03721278 19.02870366 320.98993886 19.0143975 C316.62383521 19.00329562 312.25778645 19.01522767 307.89168644 19.02423954 C299.34022719 19.03817901 290.78891552 19.03061078 282.23746329 19.01556396 C272.28208178 18.99871282 262.32673713 19.00191296 252.37134577 19.00565804 C234.61088423 19.01153784 216.85049356 18.99735993 199.0900507 18.97271061 C181.8497893 18.94878587 164.60962259 18.94170761 147.36934757 18.9522028 C128.60157365 18.96360737 109.83384353 18.96554804 91.06607014 18.9511047 C89.0655855 18.94957884 87.06510085 18.94805848 85.0646162 18.94654369 C84.08030232 18.94578588 83.09598845 18.94502807 82.08184687 18.94424729 C75.13958726 18.93950118 68.19734718 18.94135818 61.25508785 18.94560909 C52.7975875 18.9505314 44.34017674 18.94457076 35.88269692 18.9247148 C31.56614975 18.91483093 27.24973912 18.90974947 22.93318462 18.91760731 C18.98363902 18.92465006 15.03436926 18.91789267 11.08486009 18.90000368 C9.65427879 18.89595005 8.22367247 18.89697436 6.79310041 18.90352254 C4.85166406 18.9116502 2.91017436 18.89958472 0.96876526 18.88647461 C-0.65023008 18.88493091 -0.65023008 18.88493091 -2.30193239 18.88335603 C-6.28480171 18.36587883 -9.08604774 16.93042571 -11.58011532 13.75615788 C-12.53347076 10.32407828 -12.12166188 7.92793172 -11.20511532 4.50615788 C-7.5613566 0.83496977 -5.11454325 0.00561439 0 0 Z " fill="#1a1816" transform="translate(47.20511531829834,361.49384212493896)"/>
<path d="M0 0 C1.45220444 0.01485695 1.45220444 0.01485695 2.93374634 0.03001404 C6.01208943 0.0690577 9.08680594 0.15685956 12.1640625 0.24609375 C14.25645875 0.28122062 16.34891115 0.31315722 18.44140625 0.34179688 C23.55867924 0.41878707 28.67325706 0.53949994 33.7890625 0.68359375 C32.61352887 3.82362558 31.37843105 6.53301513 29.42578125 9.2578125 C28.72388672 10.24491211 28.72388672 10.24491211 28.0078125 11.25195312 C27.24984375 12.30092773 27.24984375 12.30092773 26.4765625 13.37109375 C25.94675781 14.11294922 25.41695312 14.85480469 24.87109375 15.61914062 C23.18329506 17.97849302 21.48745659 20.33185915 19.7890625 22.68359375 C19.24717285 23.43463379 18.7052832 24.18567383 18.14697266 24.95947266 C15.98810468 27.95012637 13.82837043 30.94012272 11.66259766 33.92578125 C8.91710236 37.71494368 6.19421262 41.51748082 3.51171875 45.3515625 C2.980625 46.11017578 2.44953125 46.86878906 1.90234375 47.65039062 C0.90555603 49.0777806 -0.08819422 50.50729917 -1.078125 51.93945312 C-2.42952855 53.87467832 -3.81321082 55.78163341 -5.2109375 57.68359375 C-5.62182617 58.275354 -6.03271484 58.86711426 -6.45605469 59.47680664 C-10.9535734 65.41098682 -17.10145384 68.33246192 -23.5859375 71.74609375 C-25.39338951 72.71889179 -27.19774389 73.69726285 -29.00183105 74.67628479 C-30.23320059 75.34447352 -31.46538459 76.0111634 -32.69836426 76.67637634 C-39.03425571 80.10289262 -45.25177873 83.71987537 -51.4609375 87.37109375 C-52.4411084 87.94674072 -53.4212793 88.5223877 -54.43115234 89.11547852 C-56.16879898 90.13636488 -57.90574658 91.15844322 -59.64160156 92.18237305 C-60.48948242 92.67777588 -61.33736328 93.17317871 -62.2109375 93.68359375 C-63.20649658 94.39588135 -64.20205566 95.10816895 -65.2277832 95.84204102 C-70.42061737 98.78135228 -76.12610282 98.17682585 -81.92578125 98.07421875 C-83.74209801 98.06572906 -83.74209801 98.06572906 -85.59510803 98.05706787 C-89.44662708 98.03475257 -93.29720159 97.9845621 -97.1484375 97.93359375 C-99.76626257 97.91352262 -102.38410228 97.89527293 -105.00195312 97.87890625 C-111.4052679 97.83490344 -117.8080352 97.76803836 -124.2109375 97.68359375 C-121.14171893 95.34207421 -118.03993037 93.36035749 -114.6796875 91.453125 C-113.57238281 90.82317627 -112.46507812 90.19322754 -111.32421875 89.54418945 C-110.73592285 89.21101715 -110.14762695 88.87784485 -109.54150391 88.53457642 C-107.68243539 87.47992447 -105.82717482 86.41883094 -103.97265625 85.35620117 C-98.15889133 82.03021721 -92.33396183 78.73326603 -86.44181824 75.54776001 C-73.26256567 68.42142618 -61.30731882 61.90685615 -52.2109375 49.68359375 C-50.65384027 47.78332048 -49.09151209 45.88731885 -47.5234375 43.99609375 C-46.80800781 43.10535156 -46.09257812 42.21460938 -45.35546875 41.296875 C-43.21218794 38.68511752 -40.9871342 36.17994073 -38.7109375 33.68359375 C-35.59635082 30.26620003 -32.6190713 26.77837025 -29.7109375 23.18359375 C-26.09229071 18.7123862 -22.33300135 14.41014183 -18.44921875 10.16796875 C-16.28614607 7.88584906 -16.28614607 7.88584906 -15.03883362 5.9337616 C-10.77534127 -0.03919855 -7.04605002 -0.27329316 0 0 Z " fill="#14b8a6" transform="translate(451.2109375,414.31640625)"/>
<path d="M0 0 C0.84347636 -0.00297112 1.68695272 -0.00594224 2.55598897 -0.0090034 C5.39876063 -0.01771521 8.24149031 -0.01920074 11.08427429 -0.02069092 C13.11584056 -0.02531734 15.14740596 -0.03034176 17.17897034 -0.03573608 C22.71000263 -0.04887912 28.24102278 -0.05530876 33.77206826 -0.05974674 C37.22516498 -0.06267443 40.67825834 -0.06677865 44.13135338 -0.07125092 C54.92807606 -0.08493092 65.72479112 -0.09459509 76.52152187 -0.09845281 C88.99810144 -0.10293481 101.47457154 -0.12048726 113.95111781 -0.1494534 C123.58597836 -0.17104808 133.22080806 -0.1811559 142.85569257 -0.18249393 C148.61435123 -0.18354355 154.37290704 -0.1894848 160.1315403 -0.20731354 C165.54793693 -0.22375591 170.96415299 -0.22596837 176.38056564 -0.21717453 C178.36998032 -0.21640209 180.35940454 -0.22077394 182.34879494 -0.23063278 C185.06217381 -0.24329217 187.77490733 -0.23750827 190.48828125 -0.22705078 C191.2777791 -0.23510719 192.06727695 -0.24316359 192.88069898 -0.25146413 C197.41071096 -0.21055881 200.35479912 0.2990384 203.93461609 3.14044189 C206.27630373 6.65297335 206.43085286 8.00513545 205.93461609 12.14044189 C204.13467834 14.84034851 202.85084309 16.68232839 199.93461609 18.14044189 C197.20014515 18.24930419 194.49052958 18.29707645 191.75534058 18.30107117 C190.89961356 18.30615899 190.04388654 18.31124681 189.16222841 18.3164888 C186.2780097 18.33225841 183.39381611 18.34075016 180.50956726 18.34918213 C178.448444 18.35871683 176.38732236 18.36860782 174.32620239 18.37882996 C167.54334929 18.41025503 160.76048376 18.43048404 153.97758484 18.44903564 C152.24838661 18.45398163 152.24838661 18.45398163 150.48425508 18.45902753 C139.61871937 18.48980638 128.75318097 18.51652251 117.88761425 18.53344631 C103.97342712 18.55537024 90.05962506 18.5973747 76.14559191 18.66688389 C66.3706095 18.71406417 56.59573121 18.73837179 46.82063848 18.7456432 C40.97799978 18.75060792 35.13579478 18.7657672 29.29327965 18.8053875 C23.79794902 18.84216211 18.30330143 18.85069354 12.80787086 18.83738136 C10.78940732 18.83743546 8.77091421 18.84779266 6.75256348 18.869133 C3.99915843 18.89669219 1.24826569 18.88736171 -1.50515747 18.86869812 C-2.30632817 18.88549305 -3.10749886 18.90228798 -3.93294746 18.91959184 C-6.88590894 18.86947529 -9.3089608 18.7381421 -11.68118799 16.86368763 C-13.88445491 14.34559807 -15.02005352 12.36256079 -15.69038391 9.07794189 C-14.85727107 5.16231152 -13.09631545 3.66621818 -10.06538391 1.14044189 C-6.89547487 -0.44451262 -3.48109544 -0.00378843 0 0 Z " fill="#1a1816" transform="translate(59.06538391113281,78.85955810546875)"/>
<path d="M0 0 C0.8167492 -0.00694553 1.6334984 -0.01389106 2.47499758 -0.02104706 C5.20964874 -0.03933196 7.94343385 -0.02904877 10.67811584 -0.01878357 C12.63954315 -0.0258413 14.600965 -0.0345857 16.56237793 -0.04489136 C21.88885021 -0.06741159 27.21502572 -0.06443939 32.54152751 -0.05556989 C36.98748565 -0.05046322 41.43338786 -0.05774998 45.87934023 -0.06504196 C56.36732809 -0.08204941 66.85517047 -0.07846663 77.34315491 -0.06175232 C88.16496627 -0.04482907 98.98637433 -0.06066658 109.80814165 -0.0929752 C119.09831095 -0.11966097 128.38835463 -0.12694985 137.67855841 -0.11846012 C143.22766002 -0.1135281 148.77651893 -0.11576157 154.32559013 -0.13624763 C159.54355103 -0.15458874 164.76093126 -0.148665 169.97886086 -0.12404823 C171.89367253 -0.11903542 173.80852833 -0.12254228 175.72330475 -0.13519669 C178.33809667 -0.15111004 180.95097247 -0.13619372 183.56567383 -0.11352539 C184.70162685 -0.13127898 184.70162685 -0.13127898 185.86052841 -0.14939123 C189.73009518 -0.08126218 192.3051823 0.48602576 195.32480717 2.83517551 C197.84632874 5.5146637 197.84632874 5.5146637 198.47132874 9.0146637 C197.75862265 13.00581777 196.7334371 14.71004414 193.84632874 17.5146637 C190.18387682 18.735481 186.81568616 18.65946317 183.00236511 18.65510559 C182.1947863 18.65807671 181.38720749 18.66104784 180.55515659 18.66410899 C177.83986633 18.67280424 175.12462011 18.67430493 172.40931702 18.67579651 C170.46627203 18.68042405 168.52322795 18.68544862 166.58018494 18.69084167 C161.2950718 18.70397273 156.00997136 18.71041186 150.72484446 18.71485233 C147.42467864 18.71778156 144.12451632 18.72188606 140.82435226 18.72635651 C130.50390391 18.74003251 120.1834635 18.749699 109.86300671 18.7535584 C97.93996995 18.75804133 86.0170477 18.77559975 74.09404576 18.80455899 C64.88378988 18.82615483 55.67356627 18.83626154 46.46328533 18.83759952 C40.95950413 18.83864893 35.45583056 18.8445859 29.95207596 18.86241913 C24.77615084 18.87886381 19.60041469 18.88107285 14.42447281 18.87228012 C12.52374771 18.87150785 10.6230126 18.87587744 8.72231293 18.88573837 C6.12940184 18.89840273 3.53716562 18.8926113 0.94425964 18.88215637 C0.19046245 18.89021278 -0.56333475 18.89826918 -1.33997428 18.90656972 C-5.79109921 18.86453549 -8.59721567 18.2273954 -12.15367126 15.5146637 C-14.23974052 12.85966646 -14.15246582 11.44715866 -14.09117126 8.0146637 C-12.11340107 0.63098832 -6.87581603 -0.07460113 0 0 Z " fill="#1a1816" transform="translate(102.15367126464844,255.48533630371094)"/>
<path d="M0 0 C0.86151942 -0.00694553 1.72303884 -0.01389106 2.6106649 -0.02104706 C5.50275456 -0.0393701 8.39402884 -0.02903804 11.28614807 -0.01878357 C13.35742305 -0.02583937 15.42869288 -0.03458294 17.49995422 -0.04489136 C23.13012297 -0.0674333 28.76001125 -0.06443432 34.39020801 -0.05556989 C39.08722732 -0.05046732 43.78419358 -0.05774664 48.48120743 -0.06504196 C59.56027758 -0.08205631 70.63921005 -0.07845969 81.71827698 -0.06175232 C93.15526367 -0.04482843 104.59186877 -0.06066595 116.02881378 -0.0929752 C125.8420836 -0.11964928 135.65523447 -0.12695301 145.46853691 -0.11846012 C151.33228494 -0.11352468 157.19580331 -0.11578001 163.05952263 -0.13624763 C168.57293571 -0.15457038 174.08579881 -0.14868743 179.59918213 -0.12404823 C181.62406704 -0.11902958 183.64899361 -0.12255731 185.67384529 -0.13519669 C188.43570657 -0.15107426 191.19574505 -0.13622678 193.95751953 -0.11352539 C194.76121694 -0.12536112 195.56491434 -0.13719685 196.39296621 -0.14939123 C200.43782049 -0.08171938 202.32268529 0.34284446 205.54754734 2.86642551 C207.54225159 5.5146637 207.54225159 5.5146637 208.04225159 8.5146637 C207.48731655 11.8442739 206.54728306 13.81558287 204.54225159 16.5146637 C201.33403095 18.11877402 197.84272316 17.6626345 194.31828308 17.66183472 C193.45776695 17.6655114 192.59725081 17.66918809 191.71065843 17.6729762 C188.8102786 17.68404099 185.90993455 17.68786157 183.00953674 17.69166565 C180.93693934 17.69792809 178.86434307 17.70457469 176.79174805 17.71157837 C171.14921978 17.72900622 165.5067 17.73954456 159.86415148 17.7477839 C156.34204872 17.75292926 152.81994863 17.75900514 149.29784775 17.76529503 C138.28702085 17.78435032 127.27620069 17.79858189 116.26536047 17.806907 C103.53800798 17.81668785 90.81082901 17.84302815 78.0835377 17.88340789 C68.25676307 17.91351993 58.43003833 17.92837112 48.60321844 17.93168801 C42.72886108 17.93404372 36.85468905 17.94307199 30.98038101 17.96814919 C25.45642992 17.99134964 19.93278722 17.99569555 14.40880013 17.9853878 C12.37864598 17.9848904 10.34847707 17.99127052 8.31836891 18.00494385 C5.55193416 18.02253769 2.78662127 18.0156187 0.02018738 18.00241089 C-0.78778711 18.01338013 -1.59576159 18.02434938 -2.42822015 18.03565103 C-6.02038917 17.99409395 -8.04951004 17.82400015 -10.95441628 15.62285137 C-12.67971714 13.20338735 -12.99812269 11.96198562 -12.95774841 9.0146637 C-12.96806091 8.2618512 -12.97837341 7.5090387 -12.98899841 6.7334137 C-11.36889482 -0.03290131 -5.94110619 -0.06074893 0 0 Z " fill="#1a1816" transform="translate(198.45774841308594,220.48533630371094)"/>
<path d="M0 0 C0.69984646 -0.00367669 1.39969292 -0.00735338 2.12074685 -0.01114148 C4.47749823 -0.02219826 6.83420555 -0.02602553 9.190979 -0.02983093 C10.87610007 -0.0360941 12.56121974 -0.04274077 14.24633789 -0.04974365 C18.83324808 -0.0671675 23.42014784 -0.07770929 28.00708294 -0.08594918 C30.87189351 -0.09109664 33.73670082 -0.0971725 36.60150909 -0.10346031 C45.56202547 -0.12251667 54.52253357 -0.13674659 63.48306632 -0.14507228 C73.83157555 -0.15484589 84.17987095 -0.18116678 94.52830482 -0.22157317 C102.52327907 -0.25172048 110.51819198 -0.26653986 118.51322198 -0.26985329 C123.28995507 -0.27220546 128.06645983 -0.28118736 132.84313202 -0.30631447 C137.33785713 -0.32957587 141.83220329 -0.33383626 146.32697296 -0.32355309 C147.97572591 -0.32305713 149.62449738 -0.32939507 151.27319336 -0.34310913 C153.52665861 -0.36080322 155.77876024 -0.35373552 158.03222656 -0.34057617 C159.29248531 -0.34296453 160.55274406 -0.34535288 161.85119247 -0.34781361 C165.91423519 0.24043135 168.09144155 1.59645549 171.27008057 4.14717102 C172.69670275 7.00041539 172.58041924 8.98171651 172.27008057 12.14717102 C170.11917605 15.48478147 169.06595258 16.88188035 165.27008057 18.14717102 C162.97352468 18.250103 160.67405282 18.29095684 158.37521362 18.30107117 C157.31697862 18.30764455 157.31697862 18.30764455 156.23736513 18.31435072 C153.86757096 18.32773162 151.49781397 18.33391591 149.12799072 18.34004211 C147.43124727 18.34794347 145.7345055 18.35621245 144.0377655 18.36482239 C138.46157433 18.39103272 132.88537568 18.40634636 127.30914307 18.42060852 C125.39031342 18.4259681 123.47148382 18.43134561 121.55265427 18.43674088 C113.57295953 18.45836575 105.59326681 18.47710391 97.61355019 18.48836327 C86.17181719 18.50461335 74.73042319 18.53782124 63.288818 18.59476411 C55.246283 18.63342877 47.20383881 18.65299167 39.16121328 18.65828383 C34.35596473 18.66194129 29.55107782 18.67400481 24.74592972 18.70638657 C20.22651491 18.73640713 15.70768173 18.74280069 11.18818855 18.73100281 C9.52933016 18.73078159 7.87044524 18.7391269 6.21167946 18.75665665 C3.94672135 18.77929041 1.68388289 18.77108319 -0.58108521 18.75517273 C-1.84834127 18.75848288 -3.11559734 18.76179302 -4.42125511 18.76520348 C-8.6119856 17.982408 -10.08989195 16.41878371 -12.72991943 13.14717102 C-13.63730085 10.12068767 -13.19425076 8.39749032 -12.72991943 5.14717102 C-8.94366549 0.22504089 -5.9904367 0.02033764 0 0 Z " fill="#1a1816" transform="translate(92.72991943359375,396.8528289794922)"/>
<path d="M0 0 C1.12817689 -0.01169993 1.12817689 -0.01169993 2.27914524 -0.02363622 C4.79524013 -0.04355407 7.30982208 -0.02779372 9.82592773 -0.01205444 C11.63134646 -0.0188307 13.43675827 -0.02773388 15.24215698 -0.03860474 C20.14303907 -0.06140375 25.04339503 -0.05255924 29.94428635 -0.03670931 C35.07224703 -0.02405347 40.20016256 -0.03578955 45.328125 -0.04364014 C53.93977957 -0.05273761 62.55121977 -0.04074618 71.1628418 -0.01693726 C81.12014604 0.01027416 91.0769384 0.00146007 101.03423023 -0.02606928 C109.58215372 -0.04875652 118.12992307 -0.0519623 126.67786694 -0.03887594 C131.78371255 -0.03107933 136.88931753 -0.03004566 141.99514771 -0.04655838 C146.79537043 -0.06099823 151.594933 -0.05099028 156.39508438 -0.0220871 C158.15711495 -0.01547369 159.91920105 -0.01737833 161.68120956 -0.02840042 C164.08623817 -0.04205823 166.48914946 -0.02494031 168.89404297 0 C169.59200265 -0.01115361 170.28996233 -0.02230722 171.0090723 -0.03379881 C174.84350397 0.04337758 176.37450402 0.57602883 179.39344788 3.02762794 C181.44702148 5.63491821 181.44702148 5.63491821 181.85717773 7.98648071 C181.74245117 8.73671509 181.62772461 9.48694946 181.50952148 10.25991821 C181.37223633 11.39300415 181.37223633 11.39300415 181.23217773 12.54898071 C180.16182155 15.39261355 179.08230311 16.11375895 176.44702148 17.63491821 C173.8876271 17.92745463 171.57231524 18.04877305 169.01429749 18.02932739 C168.26303398 18.0354185 167.51177048 18.0415096 166.73774141 18.04778528 C164.21888775 18.06444227 161.70053811 18.05963574 159.18164062 18.05484009 C157.37637302 18.06217884 155.57111012 18.0707645 153.76585388 18.08050537 C148.86091133 18.10274992 143.95613663 18.1056506 139.05115056 18.10375786 C134.95807029 18.1036383 130.86502577 18.11219644 126.77195543 18.12053537 C117.11682632 18.13977984 107.46178367 18.14264938 97.80664062 18.13589478 C87.84199918 18.12925203 77.87772773 18.15212539 67.91316134 18.18920851 C59.3610346 18.21988188 50.80902703 18.23126813 42.25684637 18.22737169 C37.14760445 18.22530184 32.03865043 18.23081989 26.92946053 18.25526428 C22.12519098 18.27749 17.321524 18.27568849 12.51725197 18.25533676 C10.75359379 18.25191936 8.98989538 18.25704718 7.22629166 18.27132034 C4.81906451 18.2894589 2.41389337 18.27680653 0.00672913 18.25637817 C-1.04123357 18.27515495 -1.04123357 18.27515495 -2.11036724 18.29431105 C-5.8953543 18.22540179 -7.48026124 17.69243155 -10.48639774 15.31482697 C-12.55297852 12.63491821 -12.55297852 12.63491821 -13.17797852 9.13491821 C-11.84452453 1.66757591 -6.93956245 -0.11089632 0 0 Z " fill="#1a1816" transform="translate(224.552978515625,114.36508178710938)"/>
<path d="M0 0 C0.68184311 -0.00694553 1.36368623 -0.01389106 2.06619126 -0.02104706 C4.35029243 -0.03933943 6.63335754 -0.02904742 8.91749573 -0.01878357 C10.55528034 -0.02584099 12.19305842 -0.03458526 13.83082581 -0.04489136 C18.27923654 -0.06741571 22.727292 -0.06443851 27.1757381 -0.05556989 C30.88857255 -0.05046383 34.60134001 -0.05774948 38.31416756 -0.06504196 C47.0727908 -0.08205079 55.83123986 -0.07846541 64.58985901 -0.06175232 C73.62749391 -0.04482987 82.66464586 -0.0606649 91.70222801 -0.0929752 C99.46032075 -0.11966103 107.21826306 -0.12694984 114.9763971 -0.11846012 C119.6105582 -0.11352794 124.24442869 -0.11576209 128.87855339 -0.13624763 C133.2363651 -0.15458901 137.59348157 -0.14866539 141.9512558 -0.12404823 C143.55042485 -0.11903536 145.14964673 -0.12254255 146.74877357 -0.13519669 C148.93276313 -0.15111147 151.11445874 -0.1361962 153.29833984 -0.11352539 C155.13090662 -0.11264593 155.13090662 -0.11264593 157.00049496 -0.1117487 C161.13268262 0.69407919 162.62729035 2.25900844 165.21266174 5.5146637 C165.95729414 9.4860365 165.58533052 10.95566053 163.33766174 14.3271637 C160.79530947 16.94429104 160.02183992 17.47461242 156.38804913 17.6544714 C155.17224572 17.66134252 153.95644232 17.66821363 152.70379639 17.67529297 C152.02774567 17.68038079 151.35169496 17.68546861 150.65515786 17.6907106 C148.37899914 17.70646653 146.10287223 17.71496835 143.82667542 17.72340393 C142.19904375 17.73293977 140.57141413 17.74283081 138.94378662 17.75305176 C133.5894258 17.78446485 128.2350493 17.80470508 122.88063049 17.82325745 C121.51513294 17.82820343 121.51513294 17.82820343 120.12204957 17.83324933 C111.54015486 17.86402863 102.95825671 17.89074186 94.37632275 17.90766811 C83.39086528 17.92958735 72.40589582 17.97158291 61.42063349 18.04110569 C53.70083635 18.08830745 45.98117106 18.11259646 38.2612341 18.119865 C33.64815546 18.12482669 29.03562658 18.13995613 24.4227047 18.1796093 C20.08297478 18.21642236 15.74410979 18.22490328 11.40425301 18.21160316 C9.81149717 18.2116572 8.21870354 18.22198971 6.626091 18.2433548 C4.45050599 18.27098033 2.27808797 18.26155932 0.10247803 18.24291992 C-1.11445645 18.24715186 -2.33139093 18.2513838 -3.58520222 18.25574398 C-8.16671207 17.19543093 -9.24175419 15.42034529 -11.78733826 11.5146637 C-11.85484081 7.59951586 -11.5101367 5.47363008 -9.14514065 2.33589268 C-5.97419818 -0.11342722 -3.98533667 0.00915927 0 0 Z " fill="#1a1816" transform="translate(46.78733825683594,432.48533630371094)"/>
<path d="M0 0 C1.18611374 -0.0112793 2.37222748 -0.02255859 3.59428406 -0.03417969 C4.89207291 -0.02608276 6.18986176 -0.01798584 7.52697754 -0.00964355 C8.91022987 -0.01506486 10.29347642 -0.02218756 11.67671204 -0.03088379 C15.43090025 -0.04911956 19.18464878 -0.04204887 22.93884468 -0.02936745 C26.86744497 -0.01924096 30.7960076 -0.02863214 34.72460938 -0.03491211 C41.32204956 -0.04218956 47.91931064 -0.03259834 54.51672363 -0.0135498 C62.14447746 0.00821926 69.77180363 0.00116795 77.3995471 -0.02085543 C83.94829326 -0.03900673 90.49691066 -0.04156911 97.04567385 -0.03110075 C100.95709016 -0.02486428 104.86830546 -0.02403424 108.77970886 -0.0372467 C112.45705371 -0.04880082 116.13384716 -0.0407883 119.81113243 -0.01766968 C121.804648 -0.00985661 123.79821019 -0.02174226 125.79170227 -0.03417969 C126.97781601 -0.02290039 128.16392975 -0.01162109 129.38598633 0 C130.93233639 0.00226215 130.93233639 0.00226215 132.50992584 0.00457001 C135.93337657 0.64683633 137.11285721 1.75342309 139.19299316 4.50793457 C140.13263788 11.08544759 140.13263788 11.08544759 137.48168945 15.09860229 C133.09898762 19.29437321 126.60114394 18.19984506 120.94494629 18.15490723 C119.58286877 18.16168621 118.22080043 18.17059094 116.85874939 18.18145752 C113.16644955 18.20422494 109.47484931 18.19542576 105.78253746 18.17956209 C101.91579703 18.16688954 98.04911587 18.17864695 94.18237305 18.18649292 C87.68922182 18.19558559 81.19635509 18.18361183 74.70324707 18.15979004 C67.19980651 18.1325792 59.69704526 18.14139365 52.19362116 18.16892207 C45.7475766 18.19162325 39.30173636 18.19480838 32.85566473 18.18172872 C29.00734671 18.17393964 25.15934784 18.17287732 21.31105042 18.18941116 C17.69266579 18.20387172 14.07515561 18.19380697 10.45686531 18.16493988 C8.49814679 18.15519144 6.53935418 18.1700159 4.58067322 18.18557739 C-4.99176959 18.07014692 -4.99176959 18.07014692 -8.09570312 15.09860229 C-10.76103936 11.06366652 -10.48760446 9.27211793 -9.80700684 4.50793457 C-6.86580779 0.61320524 -4.79251683 0.00701097 0 0 Z " fill="#1a1816" transform="translate(239.8070068359375,432.4920654296875)"/>
<path d="M0 0 C1.02479965 -0.0112793 2.0495993 -0.02255859 3.10545349 -0.03417969 C4.22400726 -0.02608276 5.34256104 -0.01798584 6.49501038 -0.00964355 C8.26874275 -0.02015747 8.26874275 -0.02015747 10.07830811 -0.03088379 C13.31819426 -0.04547149 16.55742664 -0.04205352 19.79730296 -0.02936745 C23.19025075 -0.0192325 26.58315521 -0.0286347 29.97610474 -0.03491211 C35.67486906 -0.04218812 41.37342599 -0.03260328 47.07215881 -0.0135498 C53.65586356 0.00820868 60.23907261 0.00117528 66.82276529 -0.02085543 C72.47897131 -0.03902342 78.13502832 -0.04156068 83.7912541 -0.03110075 C87.16783332 -0.02487206 90.54417978 -0.02401246 93.92074394 -0.0372467 C97.68672655 -0.04739457 101.45175514 -0.03193321 105.21766663 -0.00964355 C106.33419617 -0.01774048 107.45072571 -0.0258374 108.60108948 -0.03417969 C116.12346851 0.04838701 116.12346851 0.04838701 120.08218384 2.3293457 C122.7131099 5.4463483 123.06101303 7.44859388 122.92103577 11.50793457 C121.32079318 14.37856887 120.54232784 15.70393516 117.92103577 17.50793457 C114.0029603 18.41198092 110.14828732 18.32758262 106.14173889 18.28430176 C104.94935104 18.29481567 103.7569632 18.30532959 102.52844238 18.31616211 C99.26561454 18.33802202 96.00425095 18.33293404 92.74144554 18.3138876 C89.32312884 18.29866978 85.90490817 18.31279235 82.48658752 18.32220459 C76.74662274 18.33311284 71.00712153 18.3187557 65.26722717 18.29016113 C58.63614582 18.25750787 52.00617136 18.26808549 45.37511683 18.30111957 C39.67637503 18.32837007 33.97796597 18.33217898 28.27918005 18.31648755 C24.87792161 18.3071453 21.47718304 18.30585202 18.07595825 18.32570648 C14.28331949 18.34092843 10.49281241 18.31774206 6.70033264 18.28430176 C5.57602341 18.29644714 4.45171417 18.30859253 3.29333496 18.32110596 C-4.0711779 18.2006718 -4.0711779 18.2006718 -6.91195679 16.24796295 C-9.45489238 13.40938909 -10.07561829 11.70199949 -10.14146423 7.88293457 C-8.39300382 2.32900149 -5.84648816 0.00991255 0 0 Z " fill="#1a1816" transform="translate(45.07896423339844,220.4920654296875)"/>
<path d="M0 0 C1.39424194 -0.00856522 1.39424194 -0.00856522 2.81665039 -0.01730347 C4.35097969 -0.01898026 4.35097969 -0.01898026 5.91630554 -0.02069092 C6.99121246 -0.02565582 8.06611938 -0.03062073 9.17359924 -0.03573608 C12.74238212 -0.05038419 16.31112054 -0.05716425 19.87992859 -0.06268311 C22.35373944 -0.06843253 24.82755027 -0.07419028 27.30136108 -0.07995605 C32.49413766 -0.09047369 37.68689871 -0.09631132 42.87968445 -0.09979248 C49.53798815 -0.10449149 56.19605834 -0.12930341 62.85430622 -0.15776443 C67.9663554 -0.17637618 73.07835521 -0.18159565 78.19043541 -0.18312836 C80.64526169 -0.18615889 83.10008702 -0.19420081 85.55488014 -0.20731354 C88.98801401 -0.22434249 92.42064674 -0.22250119 95.85380554 -0.21600342 C96.87061905 -0.2252182 97.88743256 -0.23443298 98.93505859 -0.243927 C107.66737829 -0.19207838 107.66737829 -0.19207838 111.57914734 3.14044189 C113.92083498 6.65297335 114.07538411 8.00513545 113.57914734 12.14044189 C111.42824283 15.47805235 110.37501935 16.87515122 106.57914734 18.14044189 C105.06782408 18.23958133 103.55257569 18.28391387 102.03804016 18.29434204 C101.10717087 18.3029425 100.17630157 18.31154297 99.21722412 18.32040405 C97.68828773 18.32679398 97.68828773 18.32679398 96.12846375 18.33331299 C94.51588432 18.34557922 94.51588432 18.34557922 92.87072754 18.35809326 C89.307394 18.38293967 85.7441002 18.39945933 82.18070984 18.41387939 C80.35727617 18.42186491 80.35727617 18.42186491 78.49700546 18.43001175 C72.06573365 18.45673701 65.63448122 18.47611602 59.20317078 18.49053955 C52.55257037 18.50720747 45.9026109 18.55200502 39.25217628 18.602911 C34.14441846 18.63651824 29.0367789 18.64810973 23.92892075 18.65376663 C21.47685844 18.66049454 19.02480432 18.6757562 16.57284927 18.69965744 C13.14435931 18.73117729 9.71721602 18.73136519 6.28862 18.72393799 C5.27337753 18.74034332 4.25813507 18.75674866 3.21212769 18.77365112 C-1.4606851 18.73214516 -3.69138677 18.68531189 -7.52378845 15.82272339 C-9.92194637 12.43193959 -10.49497604 10.29135101 -10.42085266 6.14044189 C-7.45276742 1.43244461 -5.42880522 0.01993159 0 0 Z " fill="#1a1816" transform="translate(98.42085266113281,43.85955810546875)"/>
<path d="M0 0 C0.92949463 -0.0071553 1.85898926 -0.01431061 2.81665039 -0.02168274 C3.83953659 -0.02437164 4.86242279 -0.02706055 5.91630554 -0.02983093 C6.99121246 -0.03640213 8.06611938 -0.04297333 9.17359924 -0.04974365 C12.74237634 -0.06950744 16.31111131 -0.0811456 19.87992859 -0.09111023 C21.70473786 -0.09722352 21.70473786 -0.09722352 23.56641197 -0.10346031 C30.00416775 -0.12433333 36.44190213 -0.13863022 42.87968445 -0.147995 C49.53805358 -0.15805944 56.19604297 -0.19347324 62.85430622 -0.23316669 C67.96635572 -0.25927753 73.07832508 -0.26768189 78.19043541 -0.27127647 C80.64527325 -0.27615605 83.1001072 -0.28780875 85.55488014 -0.30631447 C88.98812626 -0.33058938 92.42050039 -0.32976188 95.85380554 -0.32279968 C96.87061905 -0.33560974 97.88743256 -0.3484198 98.93505859 -0.36161804 C103.34410961 -0.32897717 105.86327078 -0.29149339 109.6869812 2.05154419 C111.95307031 4.56130115 112.51735757 5.59106308 112.89164734 8.95967102 C112.50750376 12.87793552 111.28658417 14.36010369 108.57914734 17.14717102 C106.21081774 18.33133582 104.76295924 18.28306026 102.12033081 18.30107117 C101.18242203 18.30967163 100.24451324 18.31827209 99.27818298 18.32713318 C97.72982758 18.3335231 97.72982758 18.3335231 96.15019226 18.34004211 C94.52320152 18.35230835 94.52320152 18.35230835 92.86334229 18.36482239 C89.2621059 18.38970233 85.66090897 18.4061982 82.05961609 18.42060852 C80.83204401 18.4259322 79.60447193 18.43125587 78.3397007 18.43674088 C72.51392817 18.46072298 66.68817197 18.47996392 60.86236399 18.49276292 C54.13886006 18.5078273 47.41584144 18.54292189 40.69252318 18.59476411 C34.86835699 18.63814104 29.04435393 18.65410902 23.22004128 18.66049576 C20.74285958 18.66722465 18.26568602 18.68248882 15.78861046 18.70638657 C12.32409305 18.73790624 8.86090838 18.73809413 5.39628601 18.73066711 C4.37012177 18.74707245 3.34395752 18.76347778 2.28669739 18.78038025 C-2.47950062 18.73848585 -4.67919695 18.71589483 -8.55761719 15.74180603 C-11.43032686 11.74143506 -11.11117446 9.97942362 -10.42085266 5.14717102 C-7.33330529 1.13335944 -4.93299287 0.0260191 0 0 Z " fill="#1a1816" transform="translate(293.4208526611328,396.8528289794922)"/>
<path d="M0 0 C1.06413116 -0.0071553 2.12826233 -0.01431061 3.22463989 -0.02168274 C6.73483481 -0.03856248 10.24375136 -0.01916984 13.75390625 0.00219727 C16.19718532 0.00136851 18.64046433 -0.00109112 21.08374023 -0.00511169 C26.20150559 -0.00796923 31.31883318 0.00672805 36.43652344 0.03417969 C42.99387535 0.06826156 49.55044449 0.06224337 56.10783386 0.04351711 C61.15220656 0.03294453 66.19639738 0.04188748 71.24075317 0.05690193 C73.65845194 0.06208224 76.07616972 0.06160379 78.49386597 0.05535698 C81.87392976 0.04990195 85.25287605 0.07029113 88.6328125 0.09765625 C89.63039581 0.09113037 90.62797913 0.08460449 91.65579224 0.07788086 C97.49911377 0.15825094 100.86193887 0.74045504 105.31640625 4.63110352 C106.74302844 7.48434789 106.62674493 9.46564901 106.31640625 12.63110352 C104.51646851 15.33101013 103.23263325 17.17299002 100.31640625 18.63110352 C98.83279237 18.73370234 97.34471243 18.77486813 95.85758972 18.78500366 C94.91968094 18.79360413 93.98177216 18.80220459 93.01544189 18.81106567 C91.46708649 18.8174556 91.46708649 18.8174556 89.88745117 18.82397461 C88.26046043 18.83624084 88.26046043 18.83624084 86.6006012 18.84875488 C82.99936481 18.87363482 79.39816788 18.89013069 75.796875 18.90454102 C74.56930292 18.90986469 73.34173084 18.91518837 72.07695961 18.92067337 C66.25118708 18.94465547 60.42543088 18.96389642 54.59962291 18.97669542 C47.87611897 18.99175979 41.15310035 19.02685439 34.42978209 19.07869661 C28.6056159 19.12207353 22.78161285 19.13804152 16.95730019 19.14442825 C14.48011849 19.15115714 12.00294493 19.16642132 9.52586937 19.19031906 C6.06135196 19.22183873 2.59816729 19.22202662 -0.86645508 19.21459961 C-1.89261932 19.23100494 -2.91878357 19.24741028 -3.9760437 19.26431274 C-8.74241581 19.22241681 -10.94053243 19.20222583 -14.81596375 16.22354126 C-16.60189321 13.74451118 -17.38924773 12.6325611 -17.37109375 9.63110352 C-17.39558594 8.99172852 -17.42007812 8.35235352 -17.4453125 7.69360352 C-14.52099307 -0.22455372 -7.14920044 -0.08379238 0 0 Z " fill="#1a1816" transform="translate(299.68359375,78.368896484375)"/>
<path d="M0 0 C0 0.66 0 1.32 0 2 C-0.69222656 2.3810791 -1.38445312 2.7621582 -2.09765625 3.15478516 C-17.66424045 11.7353776 -33.11965854 20.46726724 -48.43066406 29.4987793 C-49.27854492 29.99418213 -50.12642578 30.48958496 -51 31 C-51.99555908 31.7122876 -52.99111816 32.4245752 -54.0168457 33.15844727 C-59.20967987 36.09775853 -64.91516532 35.4932321 -70.71484375 35.390625 C-72.53116051 35.38213531 -72.53116051 35.38213531 -74.38417053 35.37347412 C-78.23568958 35.35115882 -82.08626409 35.30096835 -85.9375 35.25 C-88.55532507 35.22992887 -91.17316478 35.21167918 -93.79101562 35.1953125 C-100.1943304 35.15130969 -106.5970977 35.08444461 -113 35 C-109.93078143 32.65848046 -106.82899287 30.67676374 -103.46875 28.76953125 C-102.36474854 28.13853516 -101.26074707 27.50753906 -100.12329102 26.85742188 C-97.64880778 25.45450115 -95.16347202 24.07299646 -92.67163086 22.70117188 C-86.4138248 19.23339293 -80.48884338 15.73868104 -74.78515625 11.38671875 C-52.3093845 -4.92409655 -26.62038596 -1.57161755 0 0 Z " fill="#0d9488" transform="translate(440,477)"/>
<path d="M0 0 C7.91983765 -0.3276252 15.83674821 -0.57469349 23.76173306 -0.72537041 C27.44396786 -0.7977781 31.12149926 -0.8955258 34.80102539 -1.05615234 C63.05929224 -2.25740751 63.05929224 -2.25740751 73.0703125 6.6875 C74.89363357 8.48236457 76.62978268 10.3159492 78.33039856 12.22712708 C81.07577045 15.14231112 84.24342811 17.47692145 87.4375 19.875 C88.56545552 20.75439373 89.69200467 21.63559795 90.81640625 22.51953125 C92.90303857 24.14795253 94.99510672 25.76866019 97.08984375 27.38671875 C98.46849609 28.46373047 98.46849609 28.46373047 99.875 29.5625 C100.67679687 30.18253906 101.47859375 30.80257813 102.3046875 31.44140625 C102.86414063 31.95574219 103.42359375 32.47007813 104 33 C104 33.66 104 34.32 104 35 C78.03409982 36.71186373 57.87477891 37.74255316 36.03808594 22.11328125 C30.86069114 18.51190474 25.35347491 15.48956769 19.875 12.375 C17.97480796 11.26079936 16.07626608 10.14377787 14.1796875 9.0234375 C9.49481961 6.27184098 4.76417382 3.61157082 0 1 C0 0.67 0 0.34 0 0 Z " fill="#14b8a6" transform="translate(389,0)"/>
<path d="M0 0 C1.21734077 -0.00744736 1.21734077 -0.00744736 2.45927429 -0.01504517 C5.15148763 -0.0296828 7.84364203 -0.03647182 10.53588867 -0.04199219 C12.40435285 -0.04774279 14.272817 -0.05350054 16.14128113 -0.05926514 C20.06294022 -0.06978 23.98457879 -0.07561933 27.90625 -0.07910156 C32.93015375 -0.08458407 37.95378618 -0.10860483 42.97760487 -0.13707352 C46.83893118 -0.1557034 50.70019222 -0.16090571 54.56155968 -0.16243744 C56.41351491 -0.16546424 58.26546898 -0.17349372 60.11738014 -0.18662262 C62.70997322 -0.20368875 65.3019047 -0.20180146 67.89453125 -0.1953125 C68.65887482 -0.20452728 69.42321838 -0.21374207 70.21072388 -0.22323608 C74.70224054 -0.18804344 77.58921614 0.35719885 81.14135742 3.16113281 C83.48304506 6.67366427 83.6375942 8.02582637 83.14135742 12.16113281 C80.99045291 15.49874326 79.93722943 16.89584214 76.14135742 18.16113281 C73.47569501 18.27270819 70.83548231 18.32878525 68.16918945 18.33813477 C67.35748291 18.34470596 66.54577637 18.35127716 65.70947266 18.35804749 C63.02270414 18.37776235 60.33599141 18.38943783 57.64916992 18.39941406 C56.27255503 18.40552735 56.27255503 18.40552735 54.86812973 18.41176414 C50.01243058 18.4326152 45.15675962 18.4469222 40.30102539 18.45629883 C35.28491653 18.46737304 30.26925009 18.50178727 25.25329781 18.54147053 C21.39626231 18.56760408 17.53933289 18.57598766 13.68221664 18.57958031 C11.83303711 18.58445318 9.98386254 18.59608708 8.13476944 18.6146183 C5.54692627 18.6389451 2.96023676 18.63805703 0.37231445 18.63110352 C-0.39045807 18.64391357 -1.15323059 18.65672363 -1.93911743 18.66992188 C-5.63277323 18.63376355 -7.68334948 18.27398561 -10.82009888 16.25456238 C-13.50207027 13.50038144 -13.8063 11.84351754 -14.06958008 8.12988281 C-13.72730419 4.93530783 -12.13240381 3.30496483 -9.85864258 1.16113281 C-6.74002643 -0.39817526 -3.42386599 0.00496796 0 0 Z " fill="#1a1816" transform="translate(322.858642578125,43.8388671875)"/>
<path d="M0 0 C0.77943466 0.00222061 1.55886932 0.00444122 2.36192322 0.00672913 C3.24276077 0.00680466 4.12359833 0.00688019 5.03112793 0.00695801 C5.98841293 0.01211929 6.94569794 0.01728058 7.93199158 0.02259827 C9.39480812 0.02472069 9.39480812 0.02472069 10.88717651 0.02688599 C14.01542675 0.03250319 17.14360656 0.04505859 20.27183533 0.05775452 C22.38706867 0.0627673 24.50230313 0.06733059 26.61753845 0.07142639 C31.81482829 0.0824782 37.01207678 0.09923305 42.20933533 0.12025452 C40.95649205 3.5737247 39.55360477 6.2534884 37.26792908 9.12416077 C36.68809265 9.85965149 36.10825623 10.59514221 35.510849 11.35292053 C34.89572449 12.12176575 34.28059998 12.89061096 33.64683533 13.68275452 C32.38036549 15.28625428 31.11474236 16.89042314 29.84996033 18.49525452 C29.2305658 19.27900452 28.61117126 20.06275452 27.9730072 20.87025452 C24.83767201 24.87015058 21.8120685 28.94947359 18.78355408 33.03041077 C17.20933533 35.12025452 17.20933533 35.12025452 16.20933533 36.12025452 C14.82773418 36.21303782 13.44145495 36.23772494 12.05674744 36.23377991 C11.17590988 36.23370438 10.29507233 36.23362885 9.38754272 36.23355103 C8.43025772 36.22838974 7.47297272 36.22322845 6.48667908 36.21791077 C5.51146805 36.21649582 4.53625702 36.21508087 3.53149414 36.21362305 C0.4032439 36.20800584 -2.72493591 36.19545044 -5.85316467 36.18275452 C-7.96839802 36.17774173 -10.08363248 36.17317844 -12.1988678 36.16908264 C-17.39615763 36.15803083 -22.59340612 36.14127598 -27.79066467 36.12025452 C-26.53782139 32.66678433 -25.13493412 29.98702063 -22.84925842 27.11634827 C-22.269422 26.38085754 -21.68958557 25.64536682 -21.09217834 24.8875885 C-20.47705383 24.11874329 -19.86192932 23.34989807 -19.22816467 22.55775452 C-17.96169484 20.95425475 -16.6960717 19.3500859 -15.43128967 17.74525452 C-14.81189514 16.96150452 -14.19250061 16.17775452 -13.55433655 15.37025452 C-10.41900135 11.37035845 -7.39339785 7.29103545 -4.36488342 3.21009827 C-2.05053994 0.13770679 -2.05053994 0.13770679 0 0 Z " fill="#14b8a6" transform="translate(469.79066467285156,87.87974548339844)"/>
<path d="M0 0 C0.84125931 -0.0087616 1.68251862 -0.01752319 2.54927063 -0.02655029 C5.32308922 -0.04851168 8.09530655 -0.03400365 10.86914062 -0.01708984 C12.80058091 -0.02045893 14.73201912 -0.02531232 16.66345215 -0.03158569 C20.70862033 -0.03895259 24.75323596 -0.02825737 28.79833984 -0.00488281 C33.9805474 0.02360483 39.16146024 0.00719988 44.3436203 -0.02274513 C48.33113337 -0.04082302 52.31834007 -0.03505782 56.30586243 -0.02210617 C58.21641697 -0.01877352 60.12699943 -0.02285429 62.03752136 -0.03450394 C64.70935614 -0.04722086 67.37910189 -0.02782516 70.05078125 0 C71.23230522 -0.01518173 71.23230522 -0.01518173 72.43769836 -0.03067017 C76.43543688 0.04636444 78.32140386 0.4886121 81.51599121 2.96865845 C83.52539062 5.64697266 83.52539062 5.64697266 84.15039062 9.14697266 C83.34781207 13.64141254 82.11244951 14.8643523 78.52539062 17.64697266 C75.50404761 18.13649308 73.05040877 18.32274849 70.03491211 18.27807617 C69.19204651 18.28523148 68.34918091 18.29238678 67.48077393 18.29975891 C64.70212163 18.3166313 61.92508592 18.29725418 59.14648438 18.27587891 C57.21265021 18.27670766 55.27881612 18.2791673 53.34498596 18.28318787 C49.29561109 18.28604476 45.24678968 18.2713538 41.19750977 18.24389648 C36.00636949 18.20979113 30.81621734 18.21584053 25.62502956 18.23455906 C21.63328306 18.24512504 17.64176668 18.23619526 13.65004158 18.22117424 C11.73587795 18.21599055 9.8216903 18.21647649 7.90752983 18.22271919 C5.23331847 18.22816746 2.56052447 18.20781036 -0.11352539 18.18041992 C-1.30044228 18.19020874 -1.30044228 18.19020874 -2.51133728 18.20019531 C-6.07953444 18.13802483 -8.07357274 17.95806752 -10.93467712 15.7386322 C-13.52160229 12.22486286 -13.98996841 10.02752446 -13.47460938 5.64697266 C-9.60446058 0.48596468 -6.12720532 -0.07873018 0 0 Z " fill="#1a1816" transform="translate(110.474609375,114.35302734375)"/>
<path d="M0 0 C14.52 0 29.04 0 44 0 C61 32.3 61 32.3 61 35 C46.15 35 31.3 35 16 35 C13.36 29.781875 10.72 24.56375 8 19.1875 C7.1646875 17.54418701 6.329375 15.90087402 5.46875 14.20776367 C4.81202329 12.90307188 4.1557427 11.59815539 3.5 10.29296875 C3.15453125 9.61737915 2.8090625 8.94178955 2.453125 8.24572754 C0.98187256 5.30486469 0 3.33517274 0 0 Z " fill="#14b8a6" transform="translate(442,203)"/>
<path d="M0 0 C0.74211731 -0.0087616 1.48423462 -0.01752319 2.24884033 -0.02655029 C4.69326883 -0.04849239 7.13587653 -0.03401037 9.58032227 -0.01708984 C11.28516485 -0.02045988 12.9900051 -0.02531406 14.69483948 -0.03158569 C18.26505444 -0.03895023 21.83464312 -0.02826689 25.40478516 -0.00488281 C29.97264526 0.02358371 34.53903509 0.00721279 39.10684109 -0.02274513 C42.62688695 -0.04084831 46.14658662 -0.03504601 49.66664314 -0.02210617 C51.35029335 -0.01877935 53.03397537 -0.02283376 54.71758842 -0.03450394 C57.0755878 -0.04726096 59.43123737 -0.02777142 61.7890625 0 C62.47964249 -0.01012115 63.17022247 -0.02024231 63.88172913 -0.03067017 C69.40569386 0.0893508 71.7369602 1.84240895 75.45922852 5.64697266 C75.93188477 7.99853516 75.93188477 7.99853516 75.52172852 10.27197266 C75.40958008 11.02736328 75.29743164 11.78275391 75.18188477 12.56103516 C74.34233739 14.98437731 73.45662639 16.05868037 71.45922852 17.64697266 C67.91180091 18.82944852 65.05865992 18.79584239 61.31323242 18.82397461 C60.58930801 18.83054581 59.86538361 18.837117 59.11952209 18.84388733 C56.72494399 18.86359097 54.33042846 18.87527522 51.93579102 18.88525391 C50.70811571 18.8913672 50.70811571 18.8913672 49.45563889 18.89760399 C45.12513228 18.91845041 40.79465724 18.93275931 36.46411133 18.94213867 C31.99278548 18.95321109 27.5219562 18.98762428 23.05080605 19.02731037 C19.61067785 19.05345622 16.17066849 19.06182859 12.73044968 19.06542015 C11.08222467 19.07028998 9.43400512 19.08191531 7.78587723 19.10045815 C5.47818848 19.12481154 3.17179163 19.12389243 0.86401367 19.11694336 C-0.4482016 19.1228096 -1.76041687 19.12867584 -3.11239624 19.13471985 C-7.09390894 18.56827904 -8.72386034 17.45841808 -11.54077148 14.64697266 C-13.11012742 11.50826078 -12.89278251 9.10841444 -12.54077148 5.64697266 C-8.8672059 0.83150395 -5.8206032 -0.08505756 0 0 Z " fill="#1a1816" transform="translate(330.540771484375,255.35302734375)"/>
<path d="M0 0 C1.08849747 -0.00478363 2.17699493 -0.00956726 3.29847717 -0.01449585 C5.59735562 -0.01789389 7.89628245 -0.00869833 10.19506836 0.01220703 C13.7073186 0.03894573 17.21636534 0.01246676 20.72851562 -0.01953125 C22.96485078 -0.01622663 25.20118396 -0.00981933 27.4375 0 C29.00805397 -0.01518173 29.00805397 -0.01518173 30.6103363 -0.03067017 C38.74095733 0.09949962 38.74095733 0.09949962 42.44458008 3.07666016 C45.60987348 6.57575053 45.60987348 6.57575053 45.53515625 9.6640625 C45.550625 10.3034375 45.56609375 10.9428125 45.58203125 11.6015625 C44.26374811 15.01358944 41.92333889 16.96925778 38.78515625 18.6640625 C35.05739421 19.36477782 31.40417505 19.29451505 27.62109375 19.22265625 C26.55146393 19.22032486 25.48183411 19.21799347 24.37979126 19.21559143 C22.12550853 19.20587266 19.87124954 19.18412896 17.6171875 19.15112305 C14.16499734 19.1016319 10.71423201 19.08963537 7.26171875 19.08398438 C5.06899524 19.06990086 2.8762841 19.05369736 0.68359375 19.03515625 C-0.86492783 19.0271122 -0.86492783 19.0271122 -2.44473267 19.01890564 C-3.40608124 19.00291824 -4.36742981 18.98693085 -5.35791016 18.97045898 C-6.20141022 18.95981918 -7.04491028 18.94917938 -7.91397095 18.93821716 C-10.47034084 18.63361939 -12.05186021 18.05149223 -14.21484375 16.6640625 C-16.32696879 13.49587494 -16.54640839 11.53186998 -16.7734375 7.796875 C-14.57276778 -0.60568209 -7.08033425 -0.06830986 0 0 Z " fill="#1a1816" transform="translate(246.21484375,43.3359375)"/>
<path d="M0 0 C1.03253906 -0.00708984 2.06507812 -0.01417969 3.12890625 -0.02148438 C12.59988319 0.05794963 12.59988319 0.05794963 16.5 3.4375 C18.09616743 6.62983485 18.01466114 9.97211497 17.5 13.4375 C15.62984906 15.86869623 14.21861655 17.07819173 11.5 18.4375 C7.90178538 18.70502525 4.2945459 18.66908496 0.6875 18.6875 C-0.31087891 18.708125 -1.30925781 18.72875 -2.33789062 18.75 C-11.52064579 18.79894207 -11.52064579 18.79894207 -15.5 15.4375 C-17.58606926 12.78250276 -17.49879455 11.36999496 -17.4375 7.9375 C-16.5 4.4375 -16.5 4.4375 -14.66015625 2.24609375 C-9.87904645 -0.49019035 -5.40978442 -0.10468372 0 0 Z " fill="#1a1816" transform="translate(52.5,255.5625)"/>
<path d="M0 0 C1.12792969 -0.01482422 2.25585938 -0.02964844 3.41796875 -0.04492188 C11.59301551 0.03731232 11.59301551 0.03731232 15.7421875 3.01171875 C18.08371969 6.57605109 18.24743333 8.50187334 17.5 12.6875 C15.74609375 15.37109375 15.74609375 15.37109375 12.5 17.6875 C8.30130035 18.4109143 4.18736299 18.33949626 -0.0625 18.25 C-1.19880859 18.26095703 -2.33511719 18.27191406 -3.50585938 18.28320312 C-11.8452641 18.20940308 -11.8452641 18.20940308 -14.78881836 15.86303711 C-17.24277439 12.74316235 -17.56812316 10.63864349 -17.5 6.6875 C-13.41628523 -0.85950122 -7.97234777 -0.19589197 0 0 Z " fill="#1a1816" transform="translate(61.5,114.3125)"/>
<path d="M0 0 C1.83498047 -0.03867187 1.83498047 -0.03867187 3.70703125 -0.078125 C7.41630402 0.27157075 9.23323969 1.04105582 12.1875 3.25 C14.11613839 5.79229606 14.19652291 7.03345018 14.0625 10.25 C13.06538701 13.66867312 11.91507889 15.01834454 9.1875 17.25 C6.26502427 18.71123786 3.62896161 18.4977615 0.375 18.5625 C-1.45998047 18.61857422 -1.45998047 18.61857422 -3.33203125 18.67578125 C-7.3862799 18.17980695 -8.95293139 17.09899719 -11.8125 14.25 C-13.23912219 11.39675563 -13.12283868 9.41545451 -12.8125 6.25 C-9.01201189 0.54926783 -6.67736111 0.08390401 0 0 Z " fill="#1a1816" transform="translate(56.8125,43.75)"/>
<path d="M0 0 C3.28745372 1.24876776 5.38902987 2.77805975 7 6 C7.42576871 9.83191838 7.30321315 11.52949683 5.1875 14.8125 C1.56380867 18.43619133 -1.94273683 18.23944097 -6.875 18.375 C-13.48237285 18.30674202 -13.48237285 18.30674202 -17.375 16 C-19.47965851 12.11447659 -20.00876113 9.31332343 -19 5 C-15.14010905 -2.12595253 -7.09244378 -0.92185159 0 0 Z " fill="#1a1816" transform="translate(55,397)"/>
</svg>
